<svg id="arrow" xmlns="http://www.w3.org/2000/svg" width="20.891" height="12.404" viewBox="0 0 20.891 12.404">
  <path id="Path_3" data-name="Path 3" d="M21.721.26a1.5,1.5,0,0,1,.433-.193,1.96,1.96,0,0,1,1.022,0,1.5,1.5,0,0,1,.433.193l8,5.315a.956.956,0,0,1,.29.288.616.616,0,0,1,0,.679.956.956,0,0,1-.29.288l-8,5.315a1.845,1.845,0,0,1-1.888,0,.7.7,0,0,1,0-1.254L28.779,6.2,21.721,1.515a.967.967,0,0,1-.29-.288.641.641,0,0,1-.1-.34.639.639,0,0,1,.1-.34A.967.967,0,0,1,21.721.26Z" transform="translate(-11.109)" fill="#fff"/>
  <path id="Path_4" data-name="Path 4" d="M0,9.5a1.841,1.841,0,0,1,.249-.96.739.739,0,0,1,.6-.4H18.7a.737.737,0,0,1,.6.4,1.976,1.976,0,0,1,0,1.919.737.737,0,0,1-.6.4H.85a.739.739,0,0,1-.6-.4A1.841,1.841,0,0,1,0,9.5Z" transform="translate(0 -3.298)" fill="#fff"/>
</svg>
