<svg xmlns="http://www.w3.org/2000/svg" width="111.051" height="111.049" viewBox="0 0 111.051 111.049">
  <g id="virus_bug_testing_qa_search_dev" data-name="virus, bug, testing, qa, search, dev" transform="translate(-69.874 -69.873)">
    <path id="Path_78" data-name="Path 78" d="M133.793,81.667a36.858,36.858,0,1,0,0,52.124A36.863,36.863,0,0,0,133.793,81.667Z" fill="none" stroke="#00aeef" stroke-linecap="round" stroke-linejoin="round" stroke-miterlimit="10" stroke-width="2"/>
    <path id="Path_79" data-name="Path 79" d="M160.573,119.331a29.181,29.181,0,1,0,0,41.261A29.191,29.191,0,0,0,160.573,119.331Z" transform="translate(-32.209 -32.236)" fill="none" stroke="#00aeef" stroke-linecap="round" stroke-linejoin="round" stroke-miterlimit="10" stroke-width="2"/>
    <path id="Path_80" data-name="Path 80" d="M377.622,377.591a36.908,36.908,0,0,1-4.846,4.029l35.249,39.4a9.217,9.217,0,0,0,13.032-13.036l-39.4-35.249A37.663,37.663,0,0,1,377.622,377.591Z" transform="translate(-243.83 -243.801)" fill="none" stroke="#00aeef" stroke-linecap="round" stroke-linejoin="round" stroke-miterlimit="10" stroke-width="2"/>
    <path id="Path_81" data-name="Path 81" d="M201.3,226.756A28.53,28.53,0,0,0,192.919,247a28.527,28.527,0,0,0,20.24-8.384A21.826,21.826,0,0,0,201.3,226.756Z" transform="translate(-98.569 -125.899)" fill="none" stroke="#00aeef" stroke-linecap="round" stroke-linejoin="round" stroke-miterlimit="10" stroke-width="2"/>
    <path id="Path_82" data-name="Path 82" d="M258.146,222.819l2.794-2.8a.073.073,0,0,0,.012-.009,5.589,5.589,0,1,0-7.9-7.907l-2.808,2.808A21.8,21.8,0,0,1,258.146,222.819Z" transform="translate(-144.866 -112.744)" fill="none" stroke="#00aeef" stroke-linecap="round" stroke-linejoin="round" stroke-miterlimit="10" stroke-width="2"/>
    <path id="Path_83" data-name="Path 83" d="M256.27,184.036a2.788,2.788,0,0,1,0-3.951v0h0a7.878,7.878,0,0,0,2.315-5.59,7.88,7.88,0,0,1-2.315,5.59h0v0A2.788,2.788,0,0,0,256.27,184.036Z" transform="translate(-149.071 -83.688)" fill="none" stroke="#00aeef" stroke-linecap="round" stroke-linejoin="round" stroke-miterlimit="10" stroke-width="2"/>
    <path id="Path_84" data-name="Path 84" d="M156.151,282.091a7.88,7.88,0,0,0,5.591-2.316h0a2.784,2.784,0,0,1,3.238-.5,2.783,2.783,0,0,0-3.238.5h0A7.879,7.879,0,0,1,156.151,282.091Z" transform="translate(-68.874 -168.064)" fill="none" stroke="#00aeef" stroke-linecap="round" stroke-linejoin="round" stroke-miterlimit="10" stroke-width="2"/>
    <path id="Path_85" data-name="Path 85" d="M229.686,331.684A7.857,7.857,0,0,1,232,326.1v0a2.781,2.781,0,0,0,.5-3.238,2.782,2.782,0,0,1-.5,3.238v0A7.856,7.856,0,0,0,229.686,331.684Z" transform="translate(-128.264 -203.512)" fill="none" stroke="#00aeef" stroke-linecap="round" stroke-linejoin="round" stroke-miterlimit="10" stroke-width="2"/>
    <path id="Path_86" data-name="Path 86" d="M160.18,240.633a10.511,10.511,0,0,0,7.45-3.087l0,0a3.715,3.715,0,0,1,4.9-.3,3.715,3.715,0,0,0-4.9.3l0,0A10.512,10.512,0,0,1,160.18,240.633Z" transform="translate(-72.128 -133.739)" fill="none" stroke="#00aeef" stroke-linecap="round" stroke-linejoin="round" stroke-miterlimit="10" stroke-width="2"/>
    <path id="Path_87" data-name="Path 87" d="M266.771,312.867a10.506,10.506,0,0,1,3.085-7.45h0a3.713,3.713,0,0,0,.3-4.9,3.713,3.713,0,0,1-.3,4.9h0A10.505,10.505,0,0,0,266.771,312.867Z" transform="translate(-158.215 -185.47)" fill="none" stroke="#00aeef" stroke-linecap="round" stroke-linejoin="round" stroke-miterlimit="10" stroke-width="2"/>
    <path id="Path_88" data-name="Path 88" d="M310.336,253.165a7.882,7.882,0,0,0-5.591,2.315h0a2.8,2.8,0,0,1-3.954,0,2.8,2.8,0,0,0,3.954,0h0A7.882,7.882,0,0,1,310.336,253.165Z" transform="translate(-185.691 -147.228)" fill="none" stroke="#00aeef" stroke-linecap="round" stroke-linejoin="round" stroke-miterlimit="10" stroke-width="2"/>
    <path id="Path_89" data-name="Path 89" d="M300.926,167.475l4.689-11.318Z" transform="translate(-185.8 -68.88)" fill="none" stroke="#00aeef" stroke-linecap="round" stroke-linejoin="round" stroke-miterlimit="10" stroke-width="2"/>
    <path id="Path_90" data-name="Path 90" d="M321.228,199.62,309.91,204.3Z" transform="translate(-193.056 -103.982)" fill="none" stroke="#00aeef" stroke-linecap="round" stroke-linejoin="round" stroke-miterlimit="10" stroke-width="2"/>
    <path id="Path_91" data-name="Path 91" d="M460.983,472.7l11.745-11.745-10.177-9.1-10.674,10.672Z" transform="translate(-307.715 -307.695)" fill="none" stroke="#00aeef" stroke-linecap="round" stroke-linejoin="round" stroke-miterlimit="10" stroke-width="2"/>
  </g>
</svg>
