<svg xmlns="http://www.w3.org/2000/svg" width="111.046" height="111.049" viewBox="0 0 111.046 111.049">
  <g id="Icons_130_April_111" transform="translate(-69.866 -69.847)">
    <path id="Path_63" data-name="Path 63" d="M162.847,496.032,159.438,523.3Z" transform="translate(-71.535 -343.401)" fill="none" stroke="#00aeef" stroke-linecap="round" stroke-linejoin="round" stroke-miterlimit="10" stroke-width="2"/>
    <path id="Path_64" data-name="Path 64" d="M121.979,343.617a13.235,13.235,0,0,1-6.814,1.982,13.877,13.877,0,0,1-8.53-3.127v.747a9.091,9.091,0,0,1-5.616,8.4L75.454,362.213a15.6,15.6,0,0,0-4.588,11.073v25.987h51.113Z" transform="translate(0 -219.377)" fill="none" stroke="#00aeef" stroke-linecap="round" stroke-linejoin="round" stroke-miterlimit="10" stroke-width="2"/>
    <path id="Path_65" data-name="Path 65" d="M209.169,72.091a19.352,19.352,0,0,0-26.037,15.764v5.532a6.446,6.446,0,0,0-4.311,6.072c0,5.5,2.794,9.965,6.276,10.12,3.205,9.871,9.723,16.642,17.258,16.642a13.25,13.25,0,0,0,6.814-1.949Z" transform="translate(-87.191)" fill="none" stroke="#00aeef" stroke-linecap="round" stroke-linejoin="round" stroke-miterlimit="10" stroke-width="2"/>
    <path id="Path_66" data-name="Path 66" d="M532.4,364.006l-3.616-3.616Z" transform="translate(-369.837 -233.849)" fill="none" stroke="#00aeef" stroke-linecap="round" stroke-linejoin="round" stroke-miterlimit="10" stroke-width="2"/>
    <path id="Path_67" data-name="Path 67" d="M524.209,516.409a7.808,7.808,0,1,1-7.807-7.8A7.805,7.805,0,0,1,524.209,516.409Z" transform="translate(-353.53 -353.555)" fill="none" stroke="#00aeef" stroke-linecap="round" stroke-linejoin="round" stroke-miterlimit="10" stroke-width="2"/>
    <path id="Path_68" data-name="Path 68" d="M482.548,489.449a4.251,4.251,0,0,1,5.3,1.822,17.076,17.076,0,0,0,3.43-3.433,4.236,4.236,0,0,1,3.217-7.767,15.176,15.176,0,0,0,0-4.851,4.236,4.236,0,0,1-3.217-7.767,17.042,17.042,0,0,0-3.43-3.437,4.236,4.236,0,0,1-7.769-3.217,15.389,15.389,0,0,0-4.853,0,4.235,4.235,0,0,1-7.765,3.221,17.038,17.038,0,0,0-3.433,3.433,4.236,4.236,0,0,1-3.219,7.767,15.388,15.388,0,0,0,0,4.851,4.239,4.239,0,0,1,3.219,7.772,17.13,17.13,0,0,0,3.433,3.428,4.235,4.235,0,0,1,7.765,3.221,15.392,15.392,0,0,0,4.853,0A4.255,4.255,0,0,1,482.548,489.449Z" transform="translate(-314.785 -314.79)" fill="none" stroke="#00aeef" stroke-linecap="round" stroke-linejoin="round" stroke-miterlimit="10" stroke-width="2"/>
    <path id="Path_69" data-name="Path 69" d="M613.607,240.8v0Z" transform="translate(-438.345 -133.626)" fill="none" stroke="#00aeef" stroke-linecap="round" stroke-linejoin="round" stroke-miterlimit="10" stroke-width="2"/>
    <path id="Path_70" data-name="Path 70" d="M422.18,71.348a1.666,1.666,0,0,0-2.355,0h0L395.072,96.1l-5.3,8.843,8.835-5.3,24.752-24.752h0a1.664,1.664,0,0,0,0-2.352Z" transform="translate(-257.565 -0.012)" fill="none" stroke="#00aeef" stroke-linecap="round" stroke-linejoin="round" stroke-miterlimit="10" stroke-width="2"/>
    <path id="Path_71" data-name="Path 71" d="M533.752,85.642l3.536,3.536Z" transform="translate(-373.85 -11.949)" fill="none" stroke="#00aeef" stroke-linecap="round" stroke-linejoin="round" stroke-miterlimit="10" stroke-width="2"/>
    <path id="Path_72" data-name="Path 72" d="M521.5,97.9l3.536,3.536Z" transform="translate(-363.951 -21.847)" fill="none" stroke="#00aeef" stroke-linecap="round" stroke-linejoin="round" stroke-miterlimit="10" stroke-width="2"/>
    <path id="Path_73" data-name="Path 73" d="M417.324,202.07l3.536,3.536Z" transform="translate(-279.817 -105.982)" fill="none" stroke="#00aeef" stroke-linecap="round" stroke-linejoin="round" stroke-miterlimit="10" stroke-width="2"/>
    <path id="Path_74" data-name="Path 74" d="M386.215,324l-16.868-16.863a5.113,5.113,0,0,0-7.229,0h0l-25.524,25.522v21.235l9.863,9.866a5.106,5.106,0,0,0,7.227,0l8.9-8.9a4.177,4.177,0,0,0-1.94.052,15.388,15.388,0,0,1,0-4.851,4.236,4.236,0,0,0,3.219-7.767,17.033,17.033,0,0,1,3.433-3.433,4.235,4.235,0,0,0,7.765-3.221,15.387,15.387,0,0,1,4.853,0,4.262,4.262,0,0,0-.052,1.944l6.351-6.354h0A5.115,5.115,0,0,0,386.215,324Z" transform="translate(-214.615 -189.629)" fill="none" stroke="#00aeef" stroke-linecap="round" stroke-linejoin="round" stroke-miterlimit="10" stroke-width="2"/>
    <path id="Path_75" data-name="Path 75" d="M360.913,319.693l-24.319,24.316v9.2l19.5,19.5,6.495-6.494a4.2,4.2,0,0,0-1.944.052,15.39,15.39,0,0,1,0-4.851,4.236,4.236,0,0,0,3.219-7.767,17.034,17.034,0,0,1,3.433-3.433,4.235,4.235,0,0,0,7.765-3.222,15.389,15.389,0,0,1,4.853,0,4.28,4.28,0,0,0-.052,1.949l5.149-5.151Z" transform="translate(-214.615 -200.98)" fill="none" stroke="#00aeef" stroke-linecap="round" stroke-linejoin="round" stroke-miterlimit="10" stroke-width="2"/>
    <path id="Path_76" data-name="Path 76" d="M390.018,119.162H375.142l-19.483,19.483-8.835,5.3,5.3-8.843,15.945-15.943H336.594v49.57h13.319l12.2-12.2h0a5.113,5.113,0,0,1,7.229,0l12.2,12.2h8.467a4.509,4.509,0,0,0,4.508-4.508V123.67A4.51,4.51,0,0,0,390.018,119.162Z" transform="translate(-214.615 -39.022)" fill="none" stroke="#00aeef" stroke-linecap="round" stroke-linejoin="round" stroke-miterlimit="10" stroke-width="2"/>
    <path id="Path_77" data-name="Path 77" d="M372.042,135.274l-16.384,16.384-8.835,5.3,5.3-8.843,12.848-12.843H336.594v43.372h16.418l9.105-9.105h0a5.113,5.113,0,0,1,7.229,0l9.105,9.105h6.779V135.274Z" transform="translate(-214.615 -52.034)" fill="none" stroke="#00aeef" stroke-linecap="round" stroke-linejoin="round" stroke-miterlimit="10" stroke-width="2"/>
  </g>
</svg>
