<svg xmlns="http://www.w3.org/2000/svg" width="111.049" height="111.179" viewBox="0 0 111.049 111.179">
  <g id="brainstorming_idea_business_brain_creativity_brainstorm" data-name="brainstorming, idea, business, brain, creativity, brainstorm" transform="translate(-69.875 -69.873)">
    <path id="Path_143" data-name="Path 143" d="M276.278,164.489a16.877,16.877,0,0,0-4.954-11.966,16.854,16.854,0,0,1-4.954-11.961h0a16.917,16.917,0,0,1,16.917-16.918h0a16.916,16.916,0,0,1,16.918,16.918h0a16.839,16.839,0,0,1-4.959,11.961,16.9,16.9,0,0,0-4.95,11.966Z" transform="translate(-157.89 -42.62)" fill="none" stroke="#00aeef" stroke-linecap="round" stroke-linejoin="round" stroke-miterlimit="10" stroke-width="2"/>
    <path id="Path_144" data-name="Path 144" d="M317.881,335.984v13.537l2.416,3.624h9.186l2.419-3.624V335.984Z" transform="translate(-199.493 -214.115)" fill="none" stroke="#00aeef" stroke-linecap="round" stroke-linejoin="round" stroke-miterlimit="10" stroke-width="2"/>
    <path id="Path_145" data-name="Path 145" d="M346.6,275.593a2.416,2.416,0,0,0-4.833,0h0v9.672H346.6v-9.672Z" transform="translate(-218.787 -163.391)" fill="none" stroke="#00aeef" stroke-linecap="round" stroke-linejoin="round" stroke-miterlimit="10" stroke-width="2"/>
    <path id="Path_146" data-name="Path 146" d="M321.983,204.142a2.318,2.318,0,0,1,3.787,0h.045l5.311-12.828a4.832,4.832,0,0,1-4.832-4.83h-4.832a4.839,4.839,0,0,1-4.837,4.83l5.316,12.828Z" transform="translate(-198.479 -93.373)" fill="none" stroke="#00aeef" stroke-linecap="round" stroke-linejoin="round" stroke-miterlimit="10" stroke-width="2"/>
    <path id="Path_147" data-name="Path 147" d="M354.318,70.873v0Z" transform="translate(-228.921)" fill="none" stroke="#00aeef" stroke-linecap="round" stroke-linejoin="round" stroke-miterlimit="10" stroke-width="2"/>
    <path id="Path_148" data-name="Path 148" d="M416.5,273.777l7.18,7.183Z" transform="translate(-279.144 -163.874)" fill="none" stroke="#00aeef" stroke-linecap="round" stroke-linejoin="round" stroke-miterlimit="10" stroke-width="2"/>
    <path id="Path_149" data-name="Path 149" d="M254.809,112.084l7.178,7.176Z" transform="translate(-148.553 -33.284)" fill="none" stroke="#00aeef" stroke-linecap="round" stroke-linejoin="round" stroke-miterlimit="10" stroke-width="2"/>
    <path id="Path_150" data-name="Path 150" d="M261.987,273.777l-7.178,7.183Z" transform="translate(-148.553 -163.874)" fill="none" stroke="#00aeef" stroke-linecap="round" stroke-linejoin="round" stroke-miterlimit="10" stroke-width="2"/>
    <path id="Path_151" data-name="Path 151" d="M423.682,112.084l-7.18,7.176Z" transform="translate(-279.144 -33.284)" fill="none" stroke="#00aeef" stroke-linecap="round" stroke-linejoin="round" stroke-miterlimit="10" stroke-width="2"/>
    <path id="Path_152" data-name="Path 152" d="M223.749,211.6h0Z" transform="translate(-115.269 -113.653)" fill="none" stroke="#00aeef" stroke-linecap="round" stroke-linejoin="round" stroke-miterlimit="10" stroke-width="2"/>
    <path id="Path_153" data-name="Path 153" d="M452.434,211.6h0Z" transform="translate(-299.966 -113.653)" fill="none" stroke="#00aeef" stroke-linecap="round" stroke-linejoin="round" stroke-miterlimit="10" stroke-width="2"/>
    <path id="Path_154" data-name="Path 154" d="M193.526,569.593a8.522,8.522,0,0,0-8.519-8.521h-3.719a9.324,9.324,0,0,1-1.334-3.508,5.279,5.279,0,0,1-6.927.007,9.385,9.385,0,0,1-1.334,3.5h-3.727a8.525,8.525,0,0,0-8.521,8.521v0A44.39,44.39,0,0,0,193.526,569.593Z" transform="translate(-71.534 -393.073)" fill="none" stroke="#00aeef" stroke-linecap="round" stroke-linejoin="round" stroke-miterlimit="10" stroke-width="2"/>
    <path id="Path_155" data-name="Path 155" d="M223.245,468.381c0,6.732-3.471,12.191-7.754,12.191s-7.753-5.459-7.753-12.191a7.753,7.753,0,0,1,15.507,0Z" transform="translate(-110.537 -314.783)" fill="none" stroke="#00aeef" stroke-linecap="round" stroke-linejoin="round" stroke-miterlimit="10" stroke-width="2"/>
    <path id="Path_156" data-name="Path 156" d="M104.95,374.714a8.517,8.517,0,0,0-8.514-8.521H92.717a9.4,9.4,0,0,1-1.339-3.508,5.275,5.275,0,0,1-6.924.007,9.346,9.346,0,0,1-1.336,3.5H79.393a8.521,8.521,0,0,0-8.518,8.521v0A44.389,44.389,0,0,0,104.95,374.714Z" transform="translate(0 -235.68)" fill="none" stroke="#00aeef" stroke-linecap="round" stroke-linejoin="round" stroke-miterlimit="10" stroke-width="2"/>
    <path id="Path_157" data-name="Path 157" d="M134.671,273.51c0,6.732-3.475,12.19-7.758,12.19s-7.749-5.458-7.749-12.19a7.753,7.753,0,0,1,15.507,0Z" transform="translate(-39 -157.397)" fill="none" stroke="#00aeef" stroke-linecap="round" stroke-linejoin="round" stroke-miterlimit="10" stroke-width="2"/>
    <path id="Path_158" data-name="Path 158" d="M494.707,374.714a8.519,8.519,0,0,0-8.517-8.521h-3.719a9.365,9.365,0,0,1-1.336-3.508,5.275,5.275,0,0,1-6.924.007,9.352,9.352,0,0,1-1.336,3.5h-3.724a8.523,8.523,0,0,0-8.521,8.521v0A44.4,44.4,0,0,0,494.707,374.714Z" transform="translate(-314.783 -235.68)" fill="none" stroke="#00aeef" stroke-linecap="round" stroke-linejoin="round" stroke-miterlimit="10" stroke-width="2"/>
    <path id="Path_159" data-name="Path 159" d="M524.427,273.51c0,6.732-3.473,12.19-7.756,12.19s-7.751-5.458-7.751-12.19a7.753,7.753,0,0,1,15.507,0Z" transform="translate(-353.785 -157.397)" fill="none" stroke="#00aeef" stroke-linecap="round" stroke-linejoin="round" stroke-miterlimit="10" stroke-width="2"/>
    <path id="Path_160" data-name="Path 160" d="M406.121,569.593a8.52,8.52,0,0,0-8.517-8.521h-3.719a9.363,9.363,0,0,1-1.336-3.508,5.276,5.276,0,0,1-6.924.007,9.345,9.345,0,0,1-1.336,3.5h-3.724a8.524,8.524,0,0,0-8.521,8.521v0A44.383,44.383,0,0,0,406.121,569.593Z" transform="translate(-243.237 -393.073)" fill="none" stroke="#00aeef" stroke-linecap="round" stroke-linejoin="round" stroke-miterlimit="10" stroke-width="2"/>
    <path id="Path_161" data-name="Path 161" d="M435.841,468.381c0,6.732-3.473,12.191-7.756,12.191s-7.751-5.459-7.751-12.191a7.753,7.753,0,0,1,15.507,0Z" transform="translate(-282.239 -314.783)" fill="none" stroke="#00aeef" stroke-linecap="round" stroke-linejoin="round" stroke-miterlimit="10" stroke-width="2"/>
  </g>
</svg>
