<svg xmlns="http://www.w3.org/2000/svg" width="134.751" height="111.049" viewBox="0 0 134.751 111.049">
  <g id="Constructor_blocks" transform="translate(-69.873 -120.483)">
    <path id="Path_169" data-name="Path 169" d="M70.873,423.5l44.248,18.963V417.178L70.873,398.215Z" transform="translate(0 -211.931)" fill="none" stroke="#00aeef" stroke-linecap="round" stroke-linejoin="round" stroke-miterlimit="10" stroke-width="2"/>
    <path id="Path_170" data-name="Path 170" d="M245.481,313.181c0,1.492-2.83,2.71-6.323,2.71s-6.323-1.218-6.323-2.71,2.83-2.71,6.323-2.71S245.481,311.683,245.481,313.181Z" transform="translate(-124.036 -144.734)" fill="none" stroke="#00aeef" stroke-linecap="round" stroke-linejoin="round" stroke-miterlimit="10" stroke-width="2"/>
    <path id="Path_171" data-name="Path 171" d="M232.835,329.27c0,1.492,2.83,2.71,6.323,2.71s6.323-1.217,6.323-2.71v-7.226c0,1.492-2.83,2.71-6.323,2.71s-6.323-1.218-6.323-2.71Z" transform="translate(-124.036 -153.597)" fill="none" stroke="#00aeef" stroke-linecap="round" stroke-linejoin="round" stroke-miterlimit="10" stroke-width="2"/>
    <path id="Path_172" data-name="Path 172" d="M245.481,394.162c0,1.492-2.83,2.71-6.323,2.71s-6.323-1.218-6.323-2.71,2.83-2.71,6.323-2.71S245.481,392.67,245.481,394.162Z" transform="translate(-124.036 -206.752)" fill="none" stroke="#00aeef" stroke-linecap="round" stroke-linejoin="round" stroke-miterlimit="10" stroke-width="2"/>
    <path id="Path_173" data-name="Path 173" d="M232.835,410.251c0,1.492,2.83,2.71,6.323,2.71s6.323-1.218,6.323-2.71v-7.226c0,1.492-2.83,2.71-6.323,2.71s-6.323-1.218-6.323-2.71Z" transform="translate(-124.036 -215.615)" fill="none" stroke="#00aeef" stroke-linecap="round" stroke-linejoin="round" stroke-miterlimit="10" stroke-width="2"/>
    <path id="Path_174" data-name="Path 174" d="M339.986,353.678c0,1.5-2.83,2.71-6.323,2.71s-6.323-1.212-6.323-2.71,2.83-2.7,6.323-2.7S339.986,352.186,339.986,353.678Z" transform="translate(-196.412 -175.753)" fill="none" stroke="#00aeef" stroke-linecap="round" stroke-linejoin="round" stroke-miterlimit="10" stroke-width="2"/>
    <path id="Path_175" data-name="Path 175" d="M327.341,369.748c0,1.5,2.83,2.71,6.323,2.71s6.323-1.212,6.323-2.71v-7.226c0,1.5-2.83,2.71-6.323,2.71s-6.323-1.212-6.323-2.71Z" transform="translate(-196.413 -184.596)" fill="none" stroke="#00aeef" stroke-linecap="round" stroke-linejoin="round" stroke-miterlimit="10" stroke-width="2"/>
    <path id="Path_176" data-name="Path 176" d="M151.017,353.678c0,1.5-2.83,2.71-6.323,2.71s-6.317-1.212-6.317-2.71,2.83-2.7,6.317-2.7S151.017,352.186,151.017,353.678Z" transform="translate(-51.697 -175.753)" fill="none" stroke="#00aeef" stroke-linecap="round" stroke-linejoin="round" stroke-miterlimit="10" stroke-width="2"/>
    <path id="Path_177" data-name="Path 177" d="M138.378,369.748c0,1.5,2.83,2.71,6.317,2.71s6.323-1.212,6.323-2.71v-7.226c0,1.5-2.83,2.71-6.323,2.71s-6.317-1.212-6.317-2.71Z" transform="translate(-51.698 -184.596)" fill="none" stroke="#00aeef" stroke-linecap="round" stroke-linejoin="round" stroke-miterlimit="10" stroke-width="2"/>
    <path id="Path_178" data-name="Path 178" d="M259.837,355.14v25.285l88.5-37.925V317.209Z" transform="translate(-144.715 -149.894)" fill="none" stroke="#00aeef" stroke-linecap="round" stroke-linejoin="round" stroke-miterlimit="10" stroke-width="2"/>
    <path id="Path_179" data-name="Path 179" d="M493.072,234.512l-44.248,18.969V228.19l44.248-18.963Z" transform="translate(-289.449 -67.198)" fill="none" stroke="#00aeef" stroke-linecap="round" stroke-linejoin="round" stroke-miterlimit="10" stroke-width="2"/>
    <path id="Path_180" data-name="Path 180" d="M434.463,124.193c0,1.492-2.83,2.71-6.317,2.71s-6.323-1.218-6.323-2.71,2.83-2.71,6.323-2.71S434.463,122.7,434.463,124.193Z" transform="translate(-268.77 0)" fill="none" stroke="#00aeef" stroke-linecap="round" stroke-linejoin="round" stroke-miterlimit="10" stroke-width="2"/>
    <path id="Path_181" data-name="Path 181" d="M421.823,140.281c0,1.492,2.83,2.71,6.323,2.71s6.317-1.218,6.317-2.71v-7.226c0,1.492-2.83,2.71-6.317,2.71s-6.323-1.218-6.323-2.71Z" transform="translate(-268.77 -8.862)" fill="none" stroke="#00aeef" stroke-linecap="round" stroke-linejoin="round" stroke-miterlimit="10" stroke-width="2"/>
    <path id="Path_182" data-name="Path 182" d="M434.463,205.174c0,1.5-2.83,2.71-6.317,2.71s-6.323-1.212-6.323-2.71,2.83-2.71,6.323-2.71S434.463,203.682,434.463,205.174Z" transform="translate(-268.77 -62.018)" fill="none" stroke="#00aeef" stroke-linecap="round" stroke-linejoin="round" stroke-miterlimit="10" stroke-width="2"/>
    <path id="Path_183" data-name="Path 183" d="M421.823,221.263c0,1.492,2.83,2.71,6.323,2.71s6.317-1.218,6.317-2.71v-7.226c0,1.5-2.83,2.71-6.317,2.71s-6.323-1.212-6.323-2.71Z" transform="translate(-268.77 -70.881)" fill="none" stroke="#00aeef" stroke-linecap="round" stroke-linejoin="round" stroke-miterlimit="10" stroke-width="2"/>
    <path id="Path_184" data-name="Path 184" d="M528.968,164.7c0,1.492-2.83,2.7-6.323,2.7s-6.317-1.212-6.317-2.7,2.83-2.71,6.317-2.71S528.968,163.2,528.968,164.7Z" transform="translate(-341.146 -31.019)" fill="none" stroke="#00aeef" stroke-linecap="round" stroke-linejoin="round" stroke-miterlimit="10" stroke-width="2"/>
    <path id="Path_185" data-name="Path 185" d="M516.329,180.784c0,1.492,2.83,2.7,6.317,2.7s6.323-1.212,6.323-2.7v-7.226c0,1.492-2.83,2.7-6.323,2.7s-6.317-1.212-6.317-2.7Z" transform="translate(-341.146 -39.881)" fill="none" stroke="#00aeef" stroke-linecap="round" stroke-linejoin="round" stroke-miterlimit="10" stroke-width="2"/>
    <path id="Path_186" data-name="Path 186" d="M339.986,164.7c0,1.492-2.83,2.7-6.323,2.7s-6.323-1.212-6.323-2.7,2.83-2.71,6.323-2.71S339.986,163.2,339.986,164.7Z" transform="translate(-196.412 -31.019)" fill="none" stroke="#00aeef" stroke-linecap="round" stroke-linejoin="round" stroke-miterlimit="10" stroke-width="2"/>
    <path id="Path_187" data-name="Path 187" d="M327.341,180.784c0,1.492,2.83,2.7,6.323,2.7s6.323-1.212,6.323-2.7v-7.226c0,1.492-2.83,2.7-6.323,2.7s-6.323-1.212-6.323-2.7Z" transform="translate(-196.413 -39.881)" fill="none" stroke="#00aeef" stroke-linecap="round" stroke-linejoin="round" stroke-miterlimit="10" stroke-width="2"/>
    <path id="Path_188" data-name="Path 188" d="M259.837,209.227v23.708c3.493,0,6.323,1.212,6.323,2.71v1.578l12.868,5.517a13.379,13.379,0,0,1,2.939-.32c3.493,0,6.323,1.212,6.323,2.7v1.584l15.8,6.775V228.19Z" transform="translate(-144.715 -67.198)" fill="none" stroke="#00aeef" stroke-linecap="round" stroke-linejoin="round" stroke-miterlimit="10" stroke-width="2"/>
    <path id="Path_189" data-name="Path 189" d="M143.592,338.266v5.643c0,1.5-2.83,2.71-6.323,2.71s-6.323-1.212-6.323-2.71v-7.226c0-1.035,1.383-1.926,3.384-2.384-4.779-2.052-9.375-4.019-12.868-5.517v5.648c0,1.492-2.83,2.71-6.323,2.71s-6.323-1.217-6.323-2.71v-5.643L95.953,334.3c2,.457,3.384,1.349,3.384,2.384v7.226c0,1.5-2.83,2.71-6.317,2.71s-6.323-1.212-6.323-2.71v-5.643L70.9,345.04,115.139,364l44.254-18.963S152.184,341.948,143.592,338.266Z" transform="translate(-0.018 -158.757)" fill="none" stroke="#00aeef" stroke-linecap="round" stroke-linejoin="round" stroke-miterlimit="10" stroke-width="2"/>
    <path id="Path_190" data-name="Path 190" d="M332.556,149.277v5.648c0,1.492-2.83,2.7-6.323,2.7s-6.317-1.212-6.317-2.7V147.7c0-1.04,1.378-1.932,3.384-2.39-4.791-2.052-9.376-4.013-12.874-5.517v5.648c0,1.492-2.83,2.71-6.317,2.71s-6.323-1.218-6.323-2.71V139.8l-12.869,5.511c2.007.457,3.39,1.349,3.39,2.39v7.226c0,1.492-2.83,2.7-6.323,2.7s-6.323-1.212-6.323-2.7v-5.648l-15.8,6.775,44.248,18.963,44.249-18.963S341.149,152.959,332.556,149.277Z" transform="translate(-144.734 -14.022)" fill="none" stroke="#00aeef" stroke-linecap="round" stroke-linejoin="round" stroke-miterlimit="10" stroke-width="2"/>
  </g>
</svg>
