<svg xmlns="http://www.w3.org/2000/svg" width="57.747" height="47.047" viewBox="0 0 57.747 47.047">
  <path id="Path_331" data-name="Path 331" d="M20.06,48.047c21.854,0,33.768-18.136,33.768-33.768V12.762a23.978,23.978,0,0,0,5.919-6.146,25.259,25.259,0,0,1-6.829,1.9,11.994,11.994,0,0,0,5.236-6.6,23.753,23.753,0,0,1-7.512,2.884A11.752,11.752,0,0,0,41.99,1,11.885,11.885,0,0,0,30.076,12.914a11.172,11.172,0,0,0,.3,2.732A33.985,33.985,0,0,1,5.87,3.2,12.109,12.109,0,0,0,4.276,9.119a11.883,11.883,0,0,0,5.312,9.865A11.689,11.689,0,0,1,4.2,17.466v.152a11.812,11.812,0,0,0,9.561,11.61,10.644,10.644,0,0,1-3.111.455,10.3,10.3,0,0,1-2.2-.228,12.026,12.026,0,0,0,11.079,8.271A23.861,23.861,0,0,1,4.808,42.811c-.986,0-1.9-.076-2.808-.152a32.631,32.631,0,0,0,18.06,5.388" transform="translate(-2 -1)" fill="#fff"/>
</svg>
